<svg height="1024" preserveAspectRatio="none" viewBox="0 0 1024 1024" width="1024" xmlns="http://www.w3.org/2000/svg"><path d="m969.6 351.25q-8.6-20.85-19.4-40.85-6.1-11.35-12.9-22.4-29.35-47.55-71.55-89.8-138.25-138.25-333.8-138.25-195.5 0-333.75 138.25-138.25 138.25-138.25 333.75 0 195.55 138.25 333.8 138.25 138.2 333.75 138.2 195.55 0 333.8-138.2 76.15-76.2 110.35-169.75 27.85-76.25 27.85-164.05 0-67.35-16.4-127.95-1.85-6.85-3.9-13.6-6.15-19.95-14.05-39.15z" fill-opacity=".098039"/><path d="m841.2 539.7q-12.85-12.85-31.05-12.85-18.2 0-31.1 12.85-12.15 12.2-12.8 29.15v4.2 201.8q-.1 10.4-7.5 17.8-7.5 7.5-18.15 7.5-10.65 0-18.15-7.5-7.3-7.3-7.5-17.55v-105.4-4.85q-.85-18.5-14.15-31.8-14.2-14.2-34.3-14.2-20.1 0-34.3 14.2-14.05 14.05-14.2 33.8v68.2q.05.85.05 1.7 0 .85-.05 1.75-.55 9.6-7.55 16.6-7.6 7.6-18.35 7.6-10.75 0-18.35-7.6-7.2-7.2-7.55-17.25-.05-.25-.05-.55l-.05-225.35q0-.55 0-1.1-.4-37-26.7-63.3-26.65-26.65-64.35-26.65-37.7 0-64.4 26.65-26.25 26.3-26.65 63.3v295.2q-.25 10.55-7.75 18.05-7.75 7.75-18.75 7.75-11 0-18.75-7.75-7.55-7.55-7.75-18.1v-427.05q-.5-27.05-19.8-46.35-19.75-19.75-47.7-19.75-27.95 0-47.75 19.75-17.1 17.15-19.4 40.45v14.6 49.15q-.35 14.3-10.55 24.5-10.55 10.55-25.45 10.55-14.9 0-25.45-10.55-9.3-9.3-10.4-21.95v-198.05q-84.5 117.85820313-84.5 270.7 0 195.55 138.25 333.8 84.79003906 84.75703125 191.1 117.55 54.53808594 16.81308594 114.75 19.95.2 0 .4 0 12.15.6 24.5.7 1.5 0 3 0 15.25 0 30.1-.8 3.5-.2 6.95-.45 30.05-2.15 58.7-7.7 11.8-2.3 23.4-5.15 120.6-30.05 214.65-124.1 33.53222656-33.55527344 58.9-70.5-3.45078125.55-7.15.55-18.45 0-31.5-13.05-12.6-12.6-13-30.3v-171.65q-2.65-11.95-11.85-21.15z" fill="#45909b"/><path d="m969.7 392q-1.75-6.85-3.65-13.6-1.52421875-5.28554687-3.2-10.55-2.47128906-7.946875-5.25-15.8-9.75-27.55-23.15-53.65-5.8-11.35-12.3-22.4-30.65-52-76.35-97.75-109-109-253.65-132.05-24.5-3.9-50.05-5.35-14.9-.85-30.1-.85-14.1 0-27.9.75-177.55 9.2-305.85 137.5-30.16621094 30.16621094-53.75 63.05v198.05q1.1 12.65 10.4 21.95 10.55 10.55 25.45 10.55 14.9 0 25.45-10.55 10.2-10.2 10.55-24.5v-49.15q-.35-3.6-.35-7.3 0-3.7.35-7.3 2.3-23.3 19.4-40.45 19.8-19.75 47.75-19.75 27.95 0 47.7 19.75 19.3 19.3 19.8 46.35v427.05q.2 10.55 7.75 18.1 7.75 7.75 18.75 7.75 11 0 18.75-7.75 7.5-7.5 7.75-18.05v-295.2q.4-37 26.65-63.3 26.7-26.65 64.4-26.65 37.7 0 64.35 26.65 26.3 26.3 26.7 63.3 0 .55 0 1.1l.05 225.35q0 .3.05.55.35 10.05 7.55 17.25 7.6 7.6 18.35 7.6 10.75 0 18.35-7.6 7-7 7.55-16.6v-3.45-68.2q.15-19.75 14.2-33.8 14.2-14.2 34.3-14.2 20.1 0 34.3 14.2 13.3 13.3 14.15 31.8.05 1.25.05 2.5 0 1.2-.05 2.35v105.4q.2 10.25 7.5 17.55 7.5 7.5 18.15 7.5 10.65 0 18.15-7.5 7.4-7.4 7.5-17.8v-201.8q-.05-1.1-.05-2.25 0-1 .05-1.95.65-16.95 12.8-29.15 12.9-12.85 31.1-12.85 18.2 0 31.05 12.85 9.2 9.2 11.85 21.15v171.65q.4 17.7 13 30.3 13.05 13.05 31.5 13.05 3.69921875 0 7.15-.55 19.81933594-28.74550781 34.65-59.55 7.54492188-15.61738281 13.8-31.75 27.75-71.6 30.55-153.5.3-9.2.3-18.5 0-1 0-2 0-.5 0-1-.35-61.3-14.3-117z" fill="#fff"/><path d="m766.2 570.8q0 1.15.05 2.25v-4.2q-.05.95-.05 1.95m-148.15 165.95q0-.85-.05-1.7v3.45q.05-.9.05-1.75m-422.05-356.4q0 3.7.35 7.3v-14.6q-.35 3.6-.35 7.3m519 287q0-1.25-.05-2.5v4.85q.05-1.15.05-2.35z" fill="#72e79f"/><path d="m196.35 373.05v14.6 49.15q-.35 14.3-10.55 24.5-10.55 10.55-25.45 10.55-13.40566406 0-23.3-8.55l193.95 193.95v-278.3q-.5-27.05-19.8-46.35-19.75-19.75-47.7-19.75-27.95 0-47.75 19.75-17.1 17.15-19.4 40.45m644.85 166.65q-12.85-12.85-31.05-12.85-18.2 0-31.1 12.85-12.15 12.2-12.8 29.15v4.2 201.8q-.1 10.4-7.5 17.8-7.5 7.5-18.15 7.5-10.65 0-18.15-7.5-7.3-7.3-7.5-17.55v-105.4-4.85q-.85-18.5-14.15-31.8-14.2-14.2-34.3-14.2-20.1 0-34.3 14.2-14.05 14.05-14.2 33.8v68.2q.05.85.05 1.7 0 .85-.05 1.75-.55 9.6-7.55 16.6-7.6 7.6-18.35 7.6-10.75 0-18.35-7.6-7.2-7.2-7.55-17.25-.05-.25-.05-.55l-.05-225.35q0-.55 0-1.1-.4-37-26.7-63.3-26.65-26.65-64.35-26.65-37.7 0-64.4 26.65-26.25 26.3-26.65 63.3v295.2q-.25 10.55-7.75 18.05-7.75 7.75-18.75 7.75-10.65292969 0-18.25-7.3l159.2 159.25q5.26796875.15722656 10.55.2 1.5 0 3 0 15.25 0 30.1-.8 3.5-.2 6.95-.45 30.05-2.15 58.7-7.7 11.8-2.3 23.4-5.15 120.6-30.05 214.65-124.1 33.53222656-33.55527344 58.9-70.5-3.45078125.55-7.15.55-18.45 0-31.5-13.05-12.6-12.6-13-30.3v-171.65q-2.65-11.95-11.85-21.15z" fill-opacity=".2"/><path d="m962.85 367.85q-2.47128906-7.946875-5.25-15.8-9.75-27.55-23.15-53.65-5.8-11.35-12.3-22.4-30.65-52-76.35-97.75-109-109-253.65-132.05-24.5-3.9-50.05-5.35-14.9-.85-30.1-.85-14.1 0-27.9.75-177.55 9.2-305.85 137.5-30.16621094 30.16621094-53.75 63.05v198.05q.97480469 11.20976563 8.4 19.8.94121094 1.09121094 2 2.15 1.05820313 1.05820313 2.15 2 9.89433594 8.55 23.3 8.55 14.9 0 25.45-10.55 10.2-10.2 10.55-24.5v-49.15q-.35-3.6-.35-7.3 0-3.7.35-7.3 2.3-23.3 19.4-40.45 19.8-19.75 47.75-19.75 27.95 0 47.7 19.75 19.3 19.3 19.8 46.35v278.3 148.75q.2 10.55 7.75 18.1.12539063.12539063.25.25.125.1125.25.2 7.59707031 7.3 18.25 7.3 11 0 18.75-7.75 7.5-7.5 7.75-18.05v-295.2q.4-37 26.65-63.3 26.7-26.65 64.4-26.65 37.7 0 64.35 26.65 26.3 26.3 26.7 63.3 0 .55 0 1.1l.05 225.35q0 .3.05.55.35 10.05 7.55 17.25 7.6 7.6 18.35 7.6 10.75 0 18.35-7.6 7-7 7.55-16.6v-3.45-68.2q.15-19.75 14.2-33.8 14.2-14.2 34.3-14.2 20.1 0 34.3 14.2 13.3 13.3 14.15 31.8.05 1.25.05 2.5 0 1.2-.05 2.35v105.4q.2 10.25 7.5 17.55 7.5 7.5 18.15 7.5 10.65 0 18.15-7.5 7.4-7.4 7.5-17.8v-201.8q-.05-1.1-.05-2.25 0-1 .05-1.95.65-16.95 12.8-29.15 12.9-12.85 31.1-12.85 18.2 0 31.05 12.85 9.2 9.2 11.85 21.15v171.65q.4 17.7 13 30.3 13.05 13.05 31.5 13.05 3.69921875 0 7.15-.55 19.81933594-28.74550781 34.65-59.55 7.54492188-15.61738281 13.8-31.75 27.75-71.6 30.55-153.5.3-9.2.3-18.5 0-1 0-2 0-.5 0-1-.35-61.3-14.3-117-1.75-6.85-3.65-13.6-1.52421875-5.28554687-3.2-10.55z" fill="#fff"/><path d="m618 735.05v3.45q.05-.9.05-1.75 0-.85-.05-1.7m-421.65-347.4v-14.6q-.35 3.6-.35 7.3 0 3.7.35 7.3m518.6 277.2v4.85q.05-1.15.05-2.35 0-1.25-.05-2.5m51.3-91.8v-4.2q-.05.95-.05 1.95 0 1.15.05 2.25z" fill="#72e79f"/></svg>